
<svg xmlns="http://www.w3.org/2000/svg" version="1.1" xmlns:xlink="http://www.w3.org/1999/xlink" preserveAspectRatio="none" x="0px" y="0px" width="16px" height="16px" viewBox="0 0 16 16">
<defs>
<g id="Layer2_0_FILL">
<path fill="#E0E0E0" stroke="none" d="
M 15 6
L 15 1 10 3 6 1 1 3 1 15 6 13 7 13.5 7 11.5 6 11 6 3 10 5 10 6 15 6 Z"/>
</g>

<g id="Layer1_0_FILL">
<path fill="#E0E0E0" stroke="none" d="
M 13 7
L 13 10 16 10 13 7
M 12 11
L 12 7 8 7 8 16 16 16 16 11 12 11 Z"/>
</g>
</defs>

<g transform="matrix( 1, 0, 0, 1, 0,0) ">
<use xlink:href="#Layer2_0_FILL"/>
</g>

<g transform="matrix( 1, 0, 0, 1, 0,0) ">
<use xlink:href="#Layer1_0_FILL"/>
</g>
</svg>
